<svg xmlns="http://www.w3.org/2000/svg" viewBox="0 0 1000 1250">
  <defs>
    <filter id="shadow" x="-20%" y="-20%" width="140%" height="150%"><feDropShadow dx="12" dy="18" stdDeviation="18" flood-color="#7f6c66" flood-opacity=".2"/></filter>
    <mask id="frameMask"><rect x="38" y="72" width="924" height="1116" rx="34" fill="white"/><rect x="110" y="188" width="780" height="775" rx="10" fill="black"/></mask>
    <pattern id="gingham" width="48" height="48" patternUnits="userSpaceOnUse"><rect width="48" height="48" fill="#e8a9a2"/><rect width="24" height="48" fill="#f6cdc8" opacity=".7"/><rect width="48" height="24" fill="#fff" opacity=".18"/></pattern>
  </defs>
  <g filter="url(#shadow)">
    <rect x="38" y="72" width="924" height="1116" rx="34" fill="#fff8e9" mask="url(#frameMask)"/>
    <rect x="110" y="188" width="780" height="775" rx="10" fill="none" stroke="#e4d7c5" stroke-width="7"/>
  </g>
  <g transform="rotate(-10 210 120)"><rect x="62" y="55" width="300" height="94" rx="8" fill="url(#gingham)" opacity=".9"/><path d="M62 55l18 8 18-8 18 8 18-8 18 8 18-8 18 8 18-8 18 8 18-8 18 8 18-8 18 8 18-8 18 8 18-8" fill="none" stroke="#d88f89" stroke-width="3" opacity=".55"/></g>
  <g transform="rotate(12 790 118)"><rect x="650" y="54" width="292" height="94" rx="8" fill="#b7c7aa" opacity=".9"/><g fill="#fff8e9"><circle cx="708" cy="96" r="11"/><circle cx="748" cy="106" r="10"/><circle cx="802" cy="90" r="11"/><circle cx="854" cy="108" r="10"/></g><g fill="#e5b45e"><circle cx="708" cy="96" r="3"/><circle cx="748" cy="106" r="3"/><circle cx="802" cy="90" r="3"/><circle cx="854" cy="108" r="3"/></g></g>
  <g fill="none" stroke="#d97e86" stroke-width="12" stroke-linecap="round" stroke-linejoin="round" opacity=".85"><path d="M64 332c-38-44-94 17 1 93 94-76 38-137-1-93z"/><path d="M866 1040c-28-34-72 12 0 72 72-60 28-106 0-72z"/></g>
  <g fill="none" stroke="#d97e86" stroke-width="8" stroke-linecap="round" stroke-linejoin="round" opacity=".85"><path d="M142 402c-20-24-52 8 0 50 52-42 20-74 0-50z"/><path d="M808 1110c-18-22-46 8 0 46 46-38 18-68 0-46z"/></g>
</svg>